# xmcd
#
# Track frame offsets:
# 150
# 18973
# 32723
# 53258
# 72447
# 91873
# 104113
# 119977
# 137402
# 152322
# 167461
#
# Disc length: 2385 seconds
#
# Revision: 0
# Processed by: cddbd v1.5.2PL0 Copyright (c) Steve Scherf et al.
# Submitted via: plextools 3.16
#
DISCID=85094f0b
DTITLE=STEVE BRACK AND STAGE COUNTY - 3RD SHOWDOWN
DYEAR=1900
DGENRE=Country
TTITLE0=STEVE BRACK AND STAGE COUNTY - Real Bikers Like Me
TTITLE1=STEVE BRACK AND STAGE COUNTY - Evinrude
TTITLE2=STEVE BRACK AND STAGE COUNTY - Addiction
TTITLE3=STEVE BRACK AND STAGE COUNTY - Maybe
TTITLE4=STEVE BRACK AND STAGE COUNTY - Drive On Lady Luck
TTITLE5=STEVE BRACK AND STAGE COUNTY - Can't Have You
TTITLE6=STEVE BRACK AND STAGE COUNTY - I'm Gone
TTITLE7=STEVE BRACK AND STAGE COUNTY - I'm Coming Home
TTITLE8=STEVE BRACK AND STAGE COUNTY - Ain't Life a Pair of Dice
TTITLE9=STEVE BRACK AND STAGE COUNTY - Thief in the Dark
TTITLE10=STEVE BRACK AND STAGE COUNTY - Joint Point
EXTD=
EXTT0=
EXTT1=
EXTT2=
EXTT3=
EXTT4=
EXTT5=
EXTT6=
EXTT7=
EXTT8=
EXTT9=
EXTT10=
PLAYORDER=
